<svg xmlns="http://www.w3.org/2000/svg" xmlns:xlink="http://www.w3.org/1999/xlink" width="106" height="178.28" xmlns:v="https://vecta.io/nano"><style><![CDATA[.B{fill:none}.C{stroke:#806600}.D{stroke-width:1.3}.E{stroke-width:1.524}.F{stroke-width:.5}.G{fill:#f6e078}.H{fill:#f8eca8}.I{stroke-linecap:round}.J{fill:#3a3700}.K{stroke-width:3.16}.L{fill:#ffd42a}.M{stroke-linejoin:round}.N{stroke:#fee46e}.O{fill:#ffd000}.P{stroke-width:1.903}.Q{fill:#f8ec94}.R{stroke-linejoin:bevel}.S{stroke-width:1.333}.T{stroke-width:3.691}]]></style><path d="M1.975 56.903h99.24v69.399c.307 37.488-32.116 51.128-49.62 51.128-17.198 0-49.927-13.64-49.62-51.128V56.903z" fill="#008f4c"/><g fill="#fff" stroke="#fff"><path d="M4.691 127.718s9.278 4.571 19.745-.397 17.842 0 18.556.795.476.463.714.795c-.555-.463-.079 12.786.238 13.051s-9.516-6.757-18.873 0-20.618-.266-20.301-.133-.079-14.111-.079-14.111h0zm55.764 14.239s9.212-4.571 19.605.397 17.714 0 18.423-.795.473-.464.709-.795c-.552.464-.079-12.786.236-13.051s-9.448 6.757-18.738 0-20.47.266-20.155.133-.079 14.111-.079 14.111h0z"/><path stroke-opacity="NaN" fill-opacity="NaN" d="M99.344 127.609l1.75-1.625-.25 4.125-.5 6.25-.75 3.75-.875 1 .625-13.5zm-97.499-1.25l.482 4.033.483 4.537.966 6.805 1.569-1.764v-6.175l-.483-5.797-.603-1.134-2.413-.504z" stroke-width="null"/></g><path fill="#008f4c" d="M2.91 122.102l4.333 1.213-1.213 4.333-4.333-1.213z"/><g class="R"><g stroke="#3a3700"><path d="M1.88 57.068h99.24v69.399c.307 37.488-32.116 51.128-49.62 51.128-17.198 0-49.927-13.64-49.62-51.128V57.068z" stroke-width=".756" class="B"/><g transform="scale(1.7012677080040248)" fill="#fee46e" class="F"><circle cx="30.377" cy="53.58" r="11.375"/><circle cx="30.502" cy="53.705" r="9.75"/></g><path d="M42.961 77.332s7.23 14.035 0 28.496M60.21 77.332s-7.23 14.035 0 28.496" fill="#fff1a1" class="I F"/></g><g transform="scale(1.7012677080040248)" stroke="#fff1a1" class="J F"><ellipse cx="24.002" cy="51.476" rx="2.333" ry="1.688"/><ellipse cx="30.357" cy="60.371" rx="3.479" ry="2.306"/></g></g><g transform="scale(1.7012677080040248)" class="F J N"><circle cx="33.075" cy="39.341" r="1.5"/><circle cx="38.138" cy="41.528" r="1.5"/><circle cx="42.075" cy="45.653" r="1.5"/><circle cx="44.169" cy="51.122" r="1.5"/></g><g transform="scale(1.7012677080040248)" class="F J N"><circle cx="32.69" cy="67.861" r="1.5"/><circle cx="37.752" cy="65.674" r="1.5"/><circle cx="41.69" cy="61.549" r="1.5"/><circle cx="43.783" cy="56.08" r="1.5"/></g><g transform="scale(1.7012677080040248)" class="F J N"><circle cx="27.908" cy="67.924" r="1.5"/><circle cx="22.846" cy="65.736" r="1.5"/><circle cx="18.908" cy="61.611" r="1.5"/><circle cx="16.815" cy="56.143" r="1.5"/></g><ellipse cx="36.835" cy="51.476" rx="2.333" ry="1.688" transform="scale(1.7012677080040248)" stroke="#fff1a1" class="F J R"/><g transform="scale(1.7012677080040248)" class="F J N"><circle cx="27.502" cy="39.434" r="1.5"/><circle cx="22.44" cy="41.622" r="1.5"/><circle cx="18.502" cy="45.747" r="1.5"/><circle cx="16.408" cy="51.216" r="1.5"/></g><g stroke="null"><path d="M.211.685h105.577v52.733H.211z" stroke-width=".586" class="B"/><g transform="matrix(.593132 0 0 .57948 -19.96717 -1.520342)"><rect width="45.484" height="57.222" ry="1.228" x="208.061" y="413.595" transform="matrix(.764999 .083104 -.083104 .764999 8.934581 -303.857379)" class="O"/><path transform="rotate(356.309 151.632 50.935)" d="M145.648 37.387l14.452 2.71-7.677 24.387-9.258-1.806 2.484-25.29z" fill="#fd5"/><rect width="34.91" height="39.517" ry=".945" x="-652.29" y="413.921" transform="matrix(.997926 -.064378 .064378 .997926 702.406656 -423.039763)" class="G"/><path transform="rotate(356.309 92.649 49.851)" d="M100 37.287l-14.702-.161 2.773 25.416 9.433.034L100 37.287z" class="H"/><g transform="matrix(-.806377 .050785 .050785 .806377 2347.04386 -356.828065)" class="B C E"><path d="M2801.471 307.703h49.172v38.895h-49.172z"/><rect width="47.728" height="3.713" ry="1.265" x="2792.657" y="304.276"/><path d="M2802.209 316.497l48.051.152m-48.384 8.994l48.819.012m-48.725 9.651l47.982.012m-39.99-27.115l.376 8.213m11.768-8.508l-.516 8.336m-5.404.587l.15 8.566m20.362-8.09v7.478m-20.794 10.525l-.07 11.943"/><path d="M2837.151 334.682l-.07 11.943m-27.815-21.031l.545 9.797m12.573-9.837l-.701 9.505"/></g><g transform="matrix(-.802813 -.091183 -.091183 .802813 2375.340797 -86.076137)" class="B C E"><path d="M2702.542 459.798h49.172v38.895h-49.172z"/><rect width="47.728" height="3.713" ry="1.265" x="2693.728" y="456.371"/><path d="M2703.279 468.592l48.051.152m-48.383 8.994l48.819.012m-48.725 9.651l47.982.012m-39.99-27.116l.376 8.213m11.768-8.507l-.516 8.336m-5.405.587l.15 8.566m20.363-8.09v7.478m-20.794 10.525l-.07 11.943"/><path d="M2738.222 486.777l-.07 11.943m-27.816-21.031l.545 9.797m12.574-9.837l-.701 9.505"/></g><path transform="rotate(356.309 65.629 55.243)" d="M60.279 42.867l9.527-1.339 1.174 27.115-5.799.313-4.902-26.09z" class="H"/><path d="M35.02 17.263l10.026-1.323 1.447 8.829 8.068-1.09-1.554-8.79 10.516-1.388 1.624 8.58 7.556-1.227-.623-8.865 9.84-.916 3.093 17.714-3.655 4.757 4.741 32.235-38.892 5.74-4.708-31.48-4.456-4.127-3.023-18.648z" class="G"/><path d="M62.39 32.777l-23.636 3.376c-.976.205-.944.172-1.077-.759l-2.405-16.842c-.218-.992-.122-.928.817-1.062l8.697-1.307c1.012-.236.923-.093 1.044.861l.88 6.948c.066 1.03.079.997 1.045.856l6.084-.883c.737-.111 1.002.07.885-.682l-1.182-7.558c-.239-.939-.008-.823.863-.944l4.744-.662m1.277 18.992l23.636-3.375c.994-.077.954-.099.821-1.031l-2.405-16.842c-.069-1.013-.143-.925-1.081-.791l-8.44 1.141c-.997.076-.991.067-.866 1.009l.934 7.088c.228 1.001.18.959-.777 1.093l-6.3.886c-.885.215-.765-.03-.87-.845l-.889-6.876c-.08-1.137-.072-1.123-1.143-.967l-4.729.691" class="B C D"/><path d="M46.854 42.267l31.161-4.677 2.167 26.66-27.815 4.298-5.513-26.281z" class="H"/><g class="B C"><path d="M47.02 72.399l-4.673-32.666 39.038-5.575 4.452 32.052" class="E"/><path d="M61.765 36.893l-18.738 2.662-4.198-3.464 22.202-3.221m.202 4.069l19.918-2.858 2.52-4.342-23.485 3.304" class="D"/></g><path d="M37.872 19.184l5.65-.843 1.085 8.549 12.247-1.388-1.14-8.555 6.207-.846 1.133 8.874 12.62-1.461-.927-9.161 5.273-.666 1.607 13.831-12.196 1.399-29.935 3.55-1.624-13.283z" class="H"/><g class="C"><g class="B"><path d="M36.428 26.435l47.018-6.606" class="D"/><g class="E"><path d="M43.943 46.683l38.452-5.368M44.722 54.036l39.05-5.567M45.901 61.755l38.38-5.471M62.149 36.663l.994 6.958m-14.922-4.177l.854 5.981m27.53-10.206l.938 6.567M54.99 45.767l.826 6.483m15.806-8.859l.826 6.483"/><path d="M57.046 60.166l1.404 9.645m15.519-12.575l1.354 10.276m-24.34-14.51l1.173 7.815m25.931-11.43l1.173 7.815"/></g></g><path d="M67.836 50.099l.59 4.417 1.898 13.021-6.863.865-1.86-13.025c-.125-1.279-.523-2.922-.547-4.41-.345-4.911 6.287-5.401 6.782-.868h0z" fill="#540"/><path d="M70.446 21.488l1.152 9.332m-21.717-6.365l1.25 9.318" class="B D"/></g><g class="H"><path transform="rotate(356.309 120.599 50.684)" d="M125.95 38.308l-9.527-1.339-1.174 27.115 5.799.313 4.902-26.09z"/><path transform="rotate(356.309 173.619 56.183)" d="M171.764 42.228l9.301 2.458-9.427 25.451-5.467-1.959 5.593-25.951z"/></g><path transform="rotate(356.309 123.219 36.499)" d="M147.792 10.614l-10.09-.675-.876 8.904-8.121-.568.985-8.872-10.583-.708-1.069 8.666-7.619-.738.051-8.887-9.878-.28-1.946 17.876 3.954 4.512-2.656 32.473 39.181 3.224 2.671-31.718 4.181-4.406 1.816-18.804z" class="G"/><g class="B C D"><path transform="rotate(356.309 133.456 18.703)" d="M120.354 27.162l23.804 1.847c.987.141.953.111 1.026-.827l1.316-16.962c.154-1.004.062-.934-.883-1.007l-8.763-.745c-1.025-.17-.927-.034-.986.926l-.431 6.99c0 1.032-.014 1-.987.922l-6.128-.489c-.743-.064-.996.134-.927-.623l.693-7.619c.178-.952-.045-.822-.922-.887l-4.777-.355"/><path transform="rotate(356.309 110.36 18.514)" d="M122.274 28.855L98.47 27.009c-.997-.013-.959-.038-.886-.976L98.9 9.071c.003-1.016.083-.932 1.028-.859l8.496.595c1 .011.993.003.93.951l-.476 7.133c-.163 1.014-.118.968.846 1.041l6.344.478c.897.158.761-.079.814-.9l.444-6.919c.007-1.14-.001-1.125 1.078-1.038l4.764.385"/></g><path transform="rotate(356.309 122.432 48.363)" d="M138.354 36.403l-31.398-2.661-.446 26.744 28.034 2.499 3.809-26.582z" class="H"/><g class="B C"><path transform="rotate(356.309 121.808 48.577)" d="M140.005 66.578l2.695-32.953-39.315-3.05-2.469 31.824" class="E"/><g class="D"><path transform="rotate(356.309 133.385 29.952)" d="M121.966 31.258l18.871 1.45 3.967-3.727-22.363-1.785"/><path transform="rotate(356.309 111.415 29.813)" d="M122.445 32.683l-20.061-1.57-2.794-4.171 23.649 1.785"/></g></g><path transform="rotate(356.309 122.315 18.029)" d="M143.878 12.735l-5.692-.477-.533 8.601-12.311-.597.587-8.611-6.248-.445-.559 8.928-12.688-.645.336-9.202-5.305-.325-.713 13.906 12.261.611 30.101 1.615.765-13.36z" class="H"/><g class="B C"><path transform="rotate(356.309 122.118 18.108)" d="M145.791 19.891l-47.346-3.566" class="D"/><path transform="rotate(356.309 121.595 39.217)" d="M140.954 40.658l-38.717-2.881" class="E"/><g class="D"><path transform="rotate(356.309 121.458 46.549)" d="M141.121 48.07l-39.327-3.041"/><path transform="rotate(356.309 121.618 54.36)" d="M140.945 55.854l-38.653-2.989"/><path transform="rotate(356.309 121.617 35.325)" d="M121.889 31.821l-.544 7.007"/></g><path transform="rotate(356.309 135.794 35.8)" d="M136.028 32.788l-.467 6.024" class="E"/><path transform="rotate(356.309 107.098 35.553)" d="M107.355 32.246l-.513 6.614" class="D"/><g class="E"><path transform="rotate(356.309 129.94 43.187)" d="M130.143 39.926l-.407 6.523"/><path transform="rotate(356.309 113.14 42.969)" d="M113.344 39.707l-.407 6.523"/><path transform="rotate(356.309 129.709 59.288)" d="M130.054 54.476l-.69 9.625"/></g><g class="D"><path transform="rotate(356.309 112.55 58.558)" d="M112.895 53.745l-.69 9.625"/><path transform="rotate(356.309 134.776 50.332)" d="M135.11 46.395l-.668 7.874"/><path transform="rotate(356.309 111.514 22.529)" d="M111.788 17.836l-.549 9.387"/></g><path transform="rotate(356.309 132.24 22.828)" d="M132.563 18.139l-.647 9.379" class="E"/></g><path d="M211.117 23.495l-9.833-2.363-2.361 8.63-7.91-1.926 2.464-8.58-10.313-2.478-2.511 8.363-7.387-2.01 1.545-8.751-9.69-1.938-4.925 17.294 3.138 5.113-8.081 31.564 38.08 9.77 7.969-30.817 4.863-3.64 4.953-18.23z" fill="#e7c300"/><path d="M182.277 36.066l23.154 5.825c.949.305.921.269 1.15-.643l4.151-16.499c.32-.964.218-.91-.701-1.141l-8.513-2.208c-.982-.341-.908-.189-1.128.747l-1.601 6.818c-.173 1.018-.182.983-1.128.743l-5.958-1.513c-.721-.188-1.004-.035-.809-.77l1.965-7.393c.336-.909.094-.817-.76-1.029l-4.649-1.153m-3.255 18.753l-23.154-5.825c-.981-.18-.939-.199-.709-1.111l4.151-16.499c.174-1.001.238-.905 1.158-.673l8.275 2.016c.984.18.978.17.756 1.094l-1.669 6.952c-.331.972-.279.935.659 1.168l6.173 1.539c.858.306.764.05.954-.75l1.602-6.746c.199-1.123.189-1.109 1.238-.842l4.631 1.181" class="B C D"/><path d="M196.737 47.126l-30.503-7.906-4.939 26.288 27.214 7.179 8.227-25.562z" class="O"/><path d="M193.695 76.031l7.788-30.955-38.242-9.621-7.788 30.955m27.016-26.185l18.358 4.604 4.537-3.006-21.744-5.521m-.627 4.024l-19.511-4.923-2.052-4.582 23.012 5.739" class="B C E"/><path d="M208.08 25.107l-5.531-1.428-1.972 8.389-12.035-2.659 2.027-8.389-6.084-1.489-2.053 8.707-12.399-2.771 1.879-9.014-5.175-1.213-3.043 13.588 11.983 2.665 29.401 6.656 3.002-13.041z" class="O"/><g class="C"><g class="B"><path d="M208.759 32.47l-46.071-11.48" class="D"/><g class="E"><path d="M199.171 51.822l-37.681-9.353m36.139 16.585l-38.255-9.614m36.276 17.167l-37.599-9.449m24.06-17.203l-1.715 6.816m15.276-2.595l-1.474 5.859M167.885 37.01l-1.618 6.433m22.013 6.314l-1.499 6.362m-14.794-10.461l-1.499 6.362"/><path d="M184.732 63.863l-2.3 9.372m-14.225-14.052l-2.3 9.372m25.603-11.184l-1.983 7.65m-24.596-14.075l-1.983 7.65"/></g></g><path d="M175.052 52.724l-1.048 4.332-3.247 12.752 6.735 1.577 3.21-12.76c.258-1.259.825-2.852 1.005-4.329.856-4.848-5.688-6.028-6.654-1.571h0z" fill="#540"/><g class="B"><path d="M175.444 23.997l-2.12 9.161" class="D"/><path d="M195.587 29.095l-2.216 9.137" class="E"/></g><g fill="#540"><path transform="rotate(356.309 120.953 52.996)" d="M118.215 45.675l-.304 4.446-1.056 13.116 6.904.422 1.018-13.118c.043-1.284.334-2.95.262-4.437.028-4.923-6.621-4.985-6.823-.429h0z"/><use xlink:href="#B" transform="rotate(8.309 169.665 42.343)"/></g><path transform="rotate(356.309 107.412 50.428)" d="M107.746 46.491l-.668 7.874" class="B D"/><g fill="#540"><use xlink:href="#B" x="-59.414" y="-5.179" transform="rotate(354.101 110.252 37.164)"/><use xlink:href="#B" x="-117.475" y="1.257" transform="rotate(345.309 52.19 43.6)"/></g></g><g transform="matrix(.626837 0 0 .437755 811.537659 -824.060935)"><path d="M-1123.574 2023.544c-33.97 2.813-39.736 4.637-62.858 12.247l-4.57.482-1.982 1.811c6.454 11.471-8.086 16.376-13.306 3.274l-2.157 1.752-11.817 5.389c-.907 2.099-2.809 5.245-2.737 7.986 2.959 6.631.098-5.94 3.014 4.858.129.476 6.062 25.338 6.053 25.837l14.099-16.686c18.478-5.639 46.687-16.303 77.487-16.303s58.321 2.552 76.798 8.19l5.735 1.052-.037-1.298c0-15.767 1.405-16.561 8.043-23.276l-3.494-1.384-3.518-1.243c-9.914-3.262-19.255-7.892-31.448-8.378-16.263-.648-32.877-5.043-52.716-5.066l-.59.756z" stroke-width="2" class="L"/><g fill-rule="evenodd"><path d="M-1050.925 2054.604l-26.161-4.354 7.977-22.087 26.156 6.994-7.971 19.447z" class="O"/><path d="M-1022.205 2068.028l-29.922-11.84 2.638-25.433 30.818 9.78-3.534 27.493z" fill="#e7c300"/><path d="M-990.775 2088.286l-38.463-18.372 5.657-30.154 40.82 15.53-8.013 32.996z" fill="#dfb400"/><g stroke-width="1.008"><path d="M-1209.688 2044.929c-2.784-8.425 44.353-20.532 74.336-21.027 16.579-.274 29.213-1.782 29.252-.912l1.44 32.181c-27.075-1.654-68.762 21.224-97.744 24.459 0 0-3.006-21.758-7.283-34.701z" fill="#fd5"/><path d="M-1199.403 2038.152c20.049-5.995 43.684-14.633 63.339-17.19l3.485 37.592c-28.765 2.441-47.175 10.281-60.879 18.193l-5.944-38.595z" class="G"/><path d="M-1191.981 2034.359l39.582-9.802 1.861 29.664-12.497 2.22-24.162 9.175-4.784-31.257z" class="H"/></g></g><g class="B"><path d="M-1123.074 2012.576c-34.757.04-66.08 4.826-89.202 12.436l-2.559.923.318-.206c-.373.129-.789.245-1.158.376l.075.051-.915.222c6.526 6.787 10.985 20.322 10.985 35.925 0 .504-.028 1.004-.037 1.503l6.235-.751c18.478-5.639 45.704-8.49 76.504-8.49s58.321 2.552 76.798 8.19l5.735 1.052-.037-1.298c0-15.767 4.552-29.416 11.19-36.13l-2.055-.581.134-.047-2.731-.738c-23.136-7.612-54.563-12.396-89.277-12.436h0z" stroke-width=".92"/><path d="M-1206.242 2051.186c53.768-15.124 113.142-17.757 166.584 0m-130.173-7.961l1.92 8.873m-40.949-11.398c55.684-15.428 116.933-18.33 172.419-.554m-177.342-10.064c58.512-16.641 122.857-18.085 181.229-.124m-124.403.461l1.974 10.816m-29.338-6.671l2.903 10.622m-24.065-5.627l2.904 10.45m67.554-21.325l.942 10.498m24.233-11.007l-.753 10.998m23.922-9.633l-2.072 10.679m26.182-6.545l-2.637 10.335m24.299-4.978l-2.826 11.162m-152.386-24.959l3.579 11.024m44.83-17.914l1.319 10.679m51.235-10.679l-1.507 10.335m47.656-3.273l-3.391 9.99m-69.49 3.821l.278 9.761m44.908-7.006l-2.18 10.053"/></g></g><g class="B C"><path d="M122.054 75.351c-.19.223-1.777 1.596-2.07 1.644-22.158-3.507-43.248 5.183-64.627 10.576-.294.048-4.907 2.487-5 2.211l-4.268-12.264c-.092-.276 2.464-2.895 2.735-3.016l1.295-.583c20.538-7.501 43.562-8.923 66.99-14.004.291-.063 4.317.435 4.318.725" stroke-width="1.03"/><path d="M66.314 69.7l1.353 5.739m9.296-7.164l.728 4.655m43.189-9.304l-.031 3.888M99.02 63.782l.462 4.785m10.914-6.436l.165 4.923m-22.729-1.055l.687 4.572m-32.89 2.737l1.596 5.985m-4.619 1.923l1.381 4.227m8.869-8.467l1.371 5.294m8.803-7.691l1.012 5.382m9.176-8.113l.56 6.084m10.263-8.388l.324 6.457m11.322-8.067l.222 6.209m10.264-6.926l.099 5.684" class="S"/></g><g transform="matrix(1.006614 .026085 -.021302 1.232624 285.891491 -409.290404)"><g transform="matrix(.289332 -.028327 .032437 .292798 -278.72636 -116.13446)"><path d="M229.059 1738.757c-21.387-1.974-46.507-3.777-69.644-3.805-69.906.085-132.651 10.968-179.698 26.462-5.905 2.461-14.303 4.856-16.627-2.307-.383-1.394-.294-2.912.134-4.329 3.405-7.347 13.35-8.46 19.773-10.491 46.732-14.731 108.743-23.786 176.932-23.867 23.802.028 47.408.604 69.319 2.684" class="L T"/><g class="P"><path d="M157.099 1729.287c-74.158.09-135.985 11.364-183.764 28.559-10.883 3.212-8.94 1.399-9.955-2.088-1.016-3.697.948-5.372 4.094-6.635 48.052-17.826 116.179-28.328 192.194-29.808 23.303.454 49.384.807 70.047 2.918-1.347 11.008-.067 2.692-.537 10.1-22.167-2.051-48.098-3.283-72.295-3.312l.218.265z" class="G"/><path d="M162.723 1726.464c-45.263.055-89.593 3.188-129.304 11.307-25.351 5.183-50.412 11.04-69.028 17.739-.63-2.738 2.703-6.37 7.622-7.384 10.294-4.114 36.512-12.022 70.473-17.988 20.828-3.659 45.404-6.064 68.543-7.956 17.761-1.452 35.116-2.533 51.256-2.111 23.965.494 46.449 1.309 67.223 3.338 1.165 2.562 1.3.527-.45 5.871-23.446-1.973-46.447-3.038-66.335-2.818z" class="Q"/></g><path d="M227.898 1737.391c-21.387-1.974-43.74-2.911-68.875-2.605-69.906.085-132.651 10.968-179.698 26.462-5.905 2.461-14.303 4.856-16.627-2.307-.383-1.394-.294-2.912.134-4.329 3.405-7.347 13.35-8.46 19.773-10.491 46.732-14.731 108.743-23.786 176.932-23.867 23.802.028 47.408.604 69.319 2.684" class="B C I K M"/></g><g transform="matrix(.289332 -.028327 .032437 .292798 -274.50795 -104.60989)"><use xlink:href="#C" class="K L"/><g class="P"><path d="M157.977 1729.869c-74.158.09-135.387 10.444-183.167 27.639-11.158 3.79-12.696 3.793-10.607-.685-1.016-3.697.947-7.572 4.093-8.834 48.052-17.826 117.071-27.679 193.086-29.159 18.803.366 36.698 1.289 53.764 2.741-.504 10.414.908-1.546-.943 10.359a796.22 796.22 0 0 0-56.226-2.061z" class="G"/><path d="M161.749 1725.522c-45.263.055-90.017 3.259-129.728 11.378-25.351 5.183-49.351 12.609-67.968 19.308-.63-2.738 2.703-6.37 7.622-7.384 10.294-4.114 36.512-12.022 70.473-17.988 20.828-3.659 45.404-6.064 68.543-7.956 17.761-1.452 35.116-2.533 51.256-2.111 19.297.398 37.146 1.259 54.213 2.639-1.037 3.088-.188.444-.953 4.163-17.267-1.334-35.153-2.028-53.46-2.05z" class="Q"/></g><use xlink:href="#C" x="-0.579" y="0.187" class="B C I K M"/></g></g><g transform="matrix(-.610982 0 0 .748162 1851.252453 -421.703735)" class="B C"><path d="M2829.082 663.062c-.312.298 2.102 2.651 1.621 2.715-36.266-4.687-70.785 6.928-105.776 14.136-.481.064-7.341 3.151-7.492 2.782l-7.331-16.393c-.151-.369 3.688-3.696 4.13-3.859l2.119-.779c33.615-10.026 71.299-11.926 109.643-18.718.476-.084-.19-.11-.189.278" stroke-width="1.543"/><path d="M2742.862 657.266l2.214 7.67m15.215-10.813l1.191 6.222m70.688-12.436l-.05 5.197m-35.728-3.751l.583 5.187m18.035-6.569l.27 5.026m-37.2-1.918l1.125 6.11m-53.833 4.896l2.612 8m-7.558 2.157l2.26 5.65m14.515-11.316l2.243 7.076m14.409-11.106l1.656 7.193m15.019-10.843l.917 8.133m16.798-11.212l.53 8.631m18.531-9.958l.364 8.299m16.798-9.257l.161 7.598" class="S"/></g><g transform="matrix(-1.006614 .026085 .021302 1.232624 1077.174796 -409.264075)"><g transform="matrix(.289332 -.028327 .032437 .292798 -278.72636 -116.13446)"><path d="M4048.059 2027.654c-21.387-1.974-45.639-3.672-68.776-3.7-69.906.085-132.651 10.968-179.698 26.462-5.905 2.461-14.303 4.856-16.627-2.307-.383-1.394-.294-2.912.134-4.329 3.405-7.347 13.35-8.46 19.773-10.491 46.732-14.731 108.743-23.786 176.932-23.867 23.802.028 47.408.604 69.319 2.684" class="L T"/><g class="P"><path d="M3976.968 2018.289c-74.158.09-135.985 11.364-183.764 28.559-10.883 3.212-8.94 1.399-9.955-2.088-1.015-3.697.948-5.372 4.094-6.635 48.052-17.826 116.807-28.153 192.823-29.632 23.302.454 48.756.632 69.418 2.743-1.347 11.008-.456 2.584-.927 9.992-22.167-2.051-47.709-3.174-71.906-3.204l.218.265z" class="G"/><path d="M3982.591 2015.467c-45.263.055-89.593 3.188-129.304 11.307-25.351 5.183-50.412 11.04-69.028 17.739-.63-2.738 2.703-6.37 7.622-7.384 10.294-4.114 36.512-12.022 70.473-17.988 20.828-3.659 45.404-6.064 68.543-7.956 17.761-1.452 35.116-2.533 51.256-2.111 23.965.494 46.449 1.309 67.223 3.338 1.165 2.562 1.776.563.025 5.907-23.446-1.973-46.923-3.074-66.811-2.854h0z" class="Q"/></g><path d="M4049.604 2026.447c-21.387-1.974-45.577-2.965-70.712-2.658-69.906.085-132.651 10.968-179.698 26.462-5.905 2.461-14.303 4.856-16.627-2.307-.383-1.394-.294-2.912.134-4.329 3.405-7.347 13.35-8.46 19.773-10.491 46.732-14.731 108.743-23.786 176.932-23.867 23.802.028 49.851.788 71.762 2.868" class="B C I K M"/></g><g transform="matrix(.289332 -.028327 .032437 .292798 -274.50795 -104.60989)"><path d="M4036.425 2027.389c-17.514-1.296-37.842-2.395-56.44-2.418-69.906.085-133.165 9.599-180.212 25.093-5.905 2.461-14.303 4.856-16.627-2.307-.383-1.394-.294-2.912.134-4.329 3.405-7.347 13.35-8.46 19.773-10.491 46.732-14.731 108.743-23.786 176.932-23.867 19.327.023 37.458.701 55.586 2.094" class="K L"/><g class="P"><path d="M3977.845 2018.871c-74.158.09-135.387 10.444-183.167 27.639-11.158 3.79-12.696 3.793-10.607-.685-1.016-3.697.947-7.572 4.093-8.834 48.052-17.826 117.07-27.679 193.086-29.159a891.3 891.3 0 0 1 55.962 2.907c-.504 10.414.908-1.546-.943 10.359-17.943-1.305-39.256-2.204-58.425-2.227z" class="G"/><path d="M3981.617 2014.524c-45.263.055-90.017 3.259-129.728 11.378-25.351 5.183-49.351 12.609-67.968 19.308-.63-2.738 2.703-6.37 7.622-7.384 10.294-4.114 36.512-12.022 70.473-17.988 20.828-3.659 45.404-6.064 68.543-7.956 17.761-1.452 35.116-2.533 51.256-2.111 19.297.398 40.322 1.499 57.389 2.879-1.037 3.088-.454.667-1.219 4.386-17.267-1.334-38.063-2.491-56.369-2.513z" class="Q"/></g><path d="M4035.379 2027.298c-17.514-1.296-37.375-2.117-55.973-2.14-69.906.085-133.165 9.599-180.212 25.093-5.905 2.461-14.303 4.856-16.627-2.307-.383-1.394-.294-2.912.134-4.329 3.405-7.347 13.35-8.46 19.773-10.491 46.732-14.731 108.743-23.786 176.932-23.867 19.327.023 41.366.997 59.494 2.39" class="B C I K M"/></g></g><g class="C"><path d="M48.409 83.736c1.612-.986 2.792-1.47 3.952-2.05 13.25-6.608 31.108-11.581 51.007-13.477 5.641-.521 10.95-.772 16.278-.764m73.025 16.381c-1.612-.986-2.792-1.47-3.952-2.05-13.25-6.608-31.108-11.581-51.007-13.477a175.22 175.22 0 0 0-13.66-.747c-.873-.013-3.674-.143-4.547-.141" stroke-width="1.6" class="B I M"/><g fill="#540"><use xlink:href="#B" x="21.059" y="5.651" transform="rotate(8.309 190.724 47.994)"/><use xlink:href="#B" x="-37.347" y="-4.6" transform="rotate(354.101 132.319 37.743)"/><use xlink:href="#B" x="-95.645" y="-1.841" transform="rotate(345.309 74.02 40.501)"/></g></g></g></g><defs ><path id="B" d="M167.373 38.795c-.039.74-.218 1.407-.255 2.155l-.884 6.356 5.782.204.852-6.357c.036-.622.28-1.429.219-2.15.024-2.386-5.545-2.416-5.714-.208h0z"/><path id="C" d="M214.379 1737.979c-17.514-1.296-35.665-1.988-54.263-2.01-69.906.085-133.165 9.599-180.212 25.093-5.905 2.461-14.303 4.856-16.627-2.307-.383-1.394-.294-2.912.134-4.329 3.405-7.347 13.35-8.46 19.773-10.491 46.732-14.731 108.743-23.786 176.932-23.867 19.327.023 37.458.701 55.586 2.094"/></defs></svg>