<svg id="Layer_1" data-name="Layer 1" xmlns="http://www.w3.org/2000/svg" viewBox="0 0 560 560"><path d="M280,151.67H420A11.68,11.68,0,0,0,431.67,140V46.67A11.68,11.68,0,0,0,420,35H280a11.68,11.68,0,0,0-11.67,11.67V140A11.68,11.68,0,0,0,280,151.67Zm11.67-93.33H408.33v70H291.67Z" transform="translate(-70 -35)" style="fill:#52bb88"/><path d="M420,256.67H280a11.67,11.67,0,0,0-11.67,11.67v93.33A11.68,11.68,0,0,0,280,373.34H420a11.68,11.68,0,0,0,11.67-11.67V268.34A11.68,11.68,0,0,0,420,256.67ZM408.33,350H291.67V280H408.33Z" transform="translate(-70 -35)" style="fill:#52bb88"/><path d="M618.33,256.67h-140a11.66,11.66,0,0,0-11.66,11.67v93.33a11.66,11.66,0,0,0,11.66,11.67h140A11.68,11.68,0,0,0,630,361.67V268.34a11.68,11.68,0,0,0-11.67-11.67ZM606.66,350H490V280H606.67Z" transform="translate(-70 -35)" style="fill:#52bb88"/><path d="M618.33,478.33h-140A11.67,11.67,0,0,0,466.67,490v93.33A11.66,11.66,0,0,0,478.33,595h140A11.68,11.68,0,0,0,630,583.33V490a11.68,11.68,0,0,0-11.67-11.67Zm-11.67,93.33H490v-70H606.67Z" transform="translate(-70 -35)" style="fill:#52bb88"/><path d="M221.67,256.67h-140A11.67,11.67,0,0,0,70,268.34v93.33a11.68,11.68,0,0,0,11.67,11.67h140a11.68,11.68,0,0,0,11.67-11.67V268.34a11.68,11.68,0,0,0-11.67-11.67ZM210,350H93.33V280H210Z" transform="translate(-70 -35)" style="fill:#52bb88"/><path d="M420,478.33H280A11.68,11.68,0,0,0,268.33,490v93.33A11.68,11.68,0,0,0,280,595H420a11.68,11.68,0,0,0,11.67-11.67V490A11.68,11.68,0,0,0,420,478.33Zm-11.67,93.33H291.67v-70H408.33Z" transform="translate(-70 -35)" style="fill:#52bb88"/><path d="M163.33,233.33V210h175v23.33a11.67,11.67,0,0,0,23.34,0V210h175v23.33a11.67,11.67,0,1,0,23.33,0v-35a11.66,11.66,0,0,0-11.67-11.66H361.67V175a11.67,11.67,0,1,0-23.33,0v11.67H151.68A11.66,11.66,0,0,0,140,198.33v35a11.67,11.67,0,1,0,23.33,0Z" transform="translate(-70 -35)" style="fill:#52bb88"/><path d="M361.67,455V396.67a11.67,11.67,0,1,0-23.33,0V455a11.67,11.67,0,1,0,23.33,0Z" transform="translate(-70 -35)" style="fill:#52bb88"/><path d="M560,455V396.67a11.67,11.67,0,1,0-23.33,0V455A11.67,11.67,0,1,0,560,455Z" transform="translate(-70 -35)" style="fill:#52bb88"/></svg>