<svg id="Layer_1" data-name="Layer 1" xmlns="http://www.w3.org/2000/svg" viewBox="0 0 437.46 267.84"><path d="M251.58,114.1c13.1-24.52,20-42.33,20-51.4a41.53,41.53,0,1,0-83,0c0,4.53,1.74,11.25,5.1,19.93a324.54,324.54,0,0,0,14.9,31.48c8.68,16.07,17.58,30.91,21.55,37.13,3.92-6.28,12.94-21,21.51-37.14ZM205.49,62.7a24.64,24.64,0,1,1,24.64,24.52A24.64,24.64,0,0,1,205.49,62.7Z" transform="translate(-11.4 -21.15)"/><path d="M303.15,105.25l32,129.59,8.46,34.5,105.28,19.21-81-164.36Z" transform="translate(-11.4 -21.15)"/><path d="M326.34,219.55l-28.28-114.8-42.73,12.49c-10.41,19.32-21.06,36.4-22.79,39.26V288.88l106.12-19.54Z" transform="translate(-11.4 -21.15)"/><path d="M162.2,104.75l-9.41,38.42L121.6,269.45,227.72,289V156.55c-2.13-3.36-12.71-20.33-22.9-39.26Z" transform="translate(-11.4 -21.15)"/><path d="M157.11,105.25,92.43,124.18l-81,164.36,105.17-19.2L147.09,146Z" transform="translate(-11.4 -21.15)"/></svg>