<svg id="Layer_1" data-name="Layer 1" xmlns="http://www.w3.org/2000/svg" viewBox="0 0 452.23 518.27"><path d="M94.9,241.43v29.82C57.84,267.77,26.63,237.42,23,199.4h30C56.15,220.9,73.84,238.16,94.9,241.43Z" transform="translate(-7.28 -5.7)" style="fill:#006837"/><path d="M182.9,199.4a2.49,2.49,0,0,1-.05.94C179.16,237,147.7,268,111,271.26V241.32c21.21-3.08,38.85-20.73,42-41.92Z" transform="translate(-7.28 -5.7)" style="fill:blue"/><path d="M203.77,183.25H141.41a39.33,39.33,0,0,0-30.3-30.3V90.59A101.26,101.26,0,0,1,203.77,183.25Z" transform="translate(-7.28 -5.7)" style="fill:#f7931e"/><rect x="295.41" y="306.88" width="27.53" height="164.11" style="fill:#ed1c24"/><rect x="218.43" y="353.45" width="27.53" height="117.54" style="fill:#ed1c24"/><rect x="141.45" y="404.79" width="27.52" height="66.2" style="fill:#ed1c24"/><path d="M459.5,460.48c.14,17.76-16.05,29.83-33.07,27.83,2.48,17.68-8.65,35.83-27.77,35.66H81.11A27.82,27.82,0,0,1,53.29,496.2V274c-61.35-32.93-61.36-132.46,0-165.4.78-27-8.46-69.73,33.13-67.21C83.94,23.63,95.09,5.51,114.24,5.7H431.73a27.77,27.77,0,0,1,27.76,27.82Zm-16.11.11V33.52a11.64,11.64,0,0,0-11.62-11.61H114.23c-11.06.19-12.35,10.84-11.61,19.51h296a27.77,27.77,0,0,1,27.77,27.76v403c7.88,1.13,17-2.49,16.91-11.61Zm-33.12,35.67V69.19a11.64,11.64,0,0,0-11.62-11.61H81.16A11.64,11.64,0,0,0,69.55,69.19V100.8A101.5,101.5,0,0,1,94.9,95.26c.33-6.64-2.56-21.16,8.08-21a117.46,117.46,0,0,1,117.3,117.3c.28,10.7-14.45,7.64-21,8.08-4.15,62.17-71.76,105-129.8,82.34V496.26A11.63,11.63,0,0,0,81.1,507.87H398.59a11.63,11.63,0,0,0,11.61-11.61Zm-218.76-313h12.26a101.26,101.26,0,0,0-92.66-92.66V153a39.33,39.33,0,0,1,30.3,30.3Zm-8.66,17.09a2.49,2.49,0,0,0,.05-.94H153c-3.12,21.19-20.76,38.84-42,41.92v29.94C147.7,268,179.16,237,182.85,200.34Zm-46.34-1.06c-19.49,2-.4-27.92-33.54-31.12-5.6.06-8.81-5.29-8.07-10.49a34.79,34.79,0,0,0-11.09,4.89c-14.35,10.12-14.93,21-14.2,37.13a34.73,34.73,0,0,0,22.64,24.47C110.68,230.3,132.56,218.5,136.51,199.28Zm-41.61,72V241.43c-21.06-3.27-38.75-20.53-42-42H23C26.63,237.42,57.84,267.77,94.9,271.25Zm0-130.09V111.33A80.5,80.5,0,0,0,23,183.13h30C56.24,161.82,73.49,144.32,94.9,141.16Z" transform="translate(-7.28 -5.7)"/><path d="M372.59,159a8.08,8.08,0,1,1,0,16.15H275.45a8.08,8.08,0,1,1,0-16.15Z" transform="translate(-7.28 -5.7)"/><path d="M371.48,188.79a8.08,8.08,0,1,1,0,16.15h-69a8.08,8.08,0,1,1,0-16.15Z" transform="translate(-7.28 -5.7)"/><path d="M357.69,476.69c10.55-.13,10.5,16.25.05,16.15H122.13c-10.47.11-10.44-16.27,0-16.15h10.5V402.42a8.09,8.09,0,0,1,8.07-8.08c72.17,0,47.51-10.68,51.75,82.35h17.1V351.07a8.09,8.09,0,0,1,8.07-8.08h43.74a8.1,8.1,0,0,1,8.08,8.08V476.69h17.1V304.51a8.09,8.09,0,0,1,8.07-8.08h43.68a8.1,8.1,0,0,1,8.08,8.08V476.69Zm-27.48,0V312.58H302.68V476.69Zm-77,0V359.15H225.7V476.69Zm-77,0v-66.2H148.72v66.2Z" transform="translate(-7.28 -5.7)"/></svg>