<svg id="Layer_1" data-name="Layer 1" xmlns="http://www.w3.org/2000/svg" viewBox="0 0 531.86 442.51"><path d="M457.79,452.61A39.86,39.86,0,0,1,446,450.93V490.7a24.86,24.86,0,0,1-24.64,24.64H184.5a24.86,24.86,0,0,1-24.64-24.64V312.06a24.85,24.85,0,0,1,24.64-24.65h68.88A385.78,385.78,0,0,1,307.15,232H184.51a80.07,80.07,0,0,0-80.08,80.09V490.7a80.06,80.06,0,0,0,80.08,80.07H420.83a80.06,80.06,0,0,0,80.08-80.07V430.77l-14,11.2a46.58,46.58,0,0,1-29.12,10.64Z" transform="translate(-104.43 -128.26)" style="fill:#52bb88"/><path d="M632.51,263.89,464,130.61c-6.72-5.6-16.81-.56-16.81,8.4v72.24C332.9,218,259,332.21,223.7,403.89c-5,10.64,7.84,20.16,16.24,12.32,39.76-35.28,109.2-80.08,207.2-82.88V405a10.48,10.48,0,0,0,16.8,8.4L632.5,280.13c5-4.48,5-12.32,0-16.24Z" transform="translate(-104.43 -128.26)" style="fill:#52bb88"/></svg>