<svg id="Layer_1" data-name="Layer 1" xmlns="http://www.w3.org/2000/svg" viewBox="0 0 537.22 408.75"><path d="M135.56,568.86C146.94,593.93,158.47,621,170.09,649l-19.76,2.14a12.78,12.78,0,0,0,1.74,1.54,8.91,8.91,0,0,0,.8.61c.26.19.62.35.81.5a3.57,3.57,0,0,0,.75.33,1.42,1.42,0,0,0,.59.14c.36,0,.34-.13.3,0a.44.44,0,0,0,.14.33s.08.07.12.07a.43.43,0,0,0,.18.06,2.78,2.78,0,0,0,1.62-.33l-14.45-10.34a12.65,12.65,0,0,0,.95-1.09s.05-.07,0-.07l.88.54,1,.57a23.14,23.14,0,0,0,3.18,1.51l.61.21.54.16,1.59.38c.2.05.43.09.68.13a9.52,9.52,0,0,0,2.92,0,2.93,2.93,0,0,0,1-.34h0l.36-.32h0v0l0,0a.24.24,0,0,0,0-.08.32.32,0,0,0,0-.07v.06h0a2.5,2.5,0,1,1,.1.29h0v0a3,3,0,0,0,1,.91,7.65,7.65,0,0,0,2.14.88l1.75.39.18,0,.44.07.54,0,.63,0A22.28,22.28,0,0,0,167,648c.69-.11,1.58-.25,2.41-.45.17,0,.09,0,.11,0h0v.05a10.85,10.85,0,0,0,.52,1.48l-27.68-4.27A23.78,23.78,0,0,0,147.48,634c.94-4.26,1-9.69.57-15.67-.21-3-.55-6.15-.92-9.47l-.28-2.52-.29-2.8-.42-5.24c-.13-1.56-.26-3-.42-4.14l-.28-1.8-.38-2.68c-.25-1.8-.5-3.58-.75-5.37s-.49-3.66-.74-5.49l-.36-2.74c-.13-.93-.17-1.68-.26-2.53l-.45-5c-.3-3.3-.61-6.58-.91-9.85q-1-9.81-1.9-19.45c-1.28-12.85-2.64-25.43-4.07-37.64q-1.17-9.75-2.34-19.62l-1.14-9.88L132,471l0-.31,0-.15c6.48-.6-14.51,1.23,14.53-1.37l-.71.08c-.64.07-1.6.18-2.39.29-22.74,3-6.3.85-11.37,1.53l-.09-.68c0-.37-.06-.53-.09-1.08s0-1,0-1.82a20.27,20.27,0,0,1,.32-2.65,18.26,18.26,0,0,1,2.55-6.42,19.1,19.1,0,0,1,1.75-2.33,18.33,18.33,0,0,1,1.53-1.53c.39-.35.95-.81,1.24-1s.71-.52,1-.68l.64-.41c.42-.25.93-.54,1.24-.69s.7-.35,1.05-.52l.87-.36c.3-.13.55-.22.77-.3l.71-.24a29.12,29.12,0,0,1,3.66-.89c.87-.16,1.56-.25,2-.31l.69-.11,1.24-.14a36.92,36.92,0,0,1,4.92-.15,38.41,38.41,0,0,1,4.81.48c.79.13,1.58.29,2.36.47s1.51.36,2.23.59a42.32,42.32,0,0,1,8.13,3.33,49.62,49.62,0,0,1,6.71,4.33c1,.77,2,1.55,2.89,2.35s1.88,1.68,2.74,2.53a90.13,90.13,0,0,1,8.29,9.74c1.1,1.46,2,2.63,3.07,4.11l3.11,4.25c2,2.83,4.17,5.69,6.17,8.52l5.79,8.44,11.59,17c7.54,11.07,15,21.67,23.1,31.35,4,4.85,8.19,9.48,12.53,13.86l.81.82.21.2.1.11c-3,3,6.72-6.62-6.65,6.71l1-1,2.18-2.24q1.73-1.77,3.42-3.58l.07.06c.18.17.72.64,1.55,1.47a26.45,26.45,0,0,1,3.39,4.16c.32.48.71,1.15,1,1.69l.41.8.34.7c.4.89.64,1.55.79,1.94l.15.41,0,0-6.94,2.59-3.6,1.41-1.9.78c-1,.44-1.45.63-1.93.88a10,10,0,0,0-1.34.76l-.07.06,2.94-2.29.5-.41c.42-.34.74-.63,1.25-1.09l.73-.67.86-.81,1-1,1.2-1.2,1.46-1.49,2-2.07a5.72,5.72,0,0,0,.55-.59h0l0,0,.87.77,1.32,1.24L271,571c1.2,1.14,2.36,2.15,3.54,3.24l7,6.4c2.32,2.06,4.61,3.9,6.93,5.68,1.16.88,2.33,1.73,3.49,2.56l1.87,1.29,1.86,1.26a48.42,48.42,0,0,0,6.13,3.59c.45.21.71.32.95.41s.36.06.33.17a27.3,27.3,0,0,0-1.18,9l.07.59,0,.26.33,1.69a3.17,3.17,0,0,0,.12.44,2.42,2.42,0,0,0,.38.67l.09.1,0,0h0l-.38-.36-.17-.15a8.88,8.88,0,0,0-1.09-.8c-.24-.15-.51-.31-.8-.47l-.47-.24-.12-.07,6.36,3.15.05,0-.19-.05a7.92,7.92,0,0,0-1.06-.15c-.36,0-.6,0-1.16-.07h-1.9l-1.57,0-2,.09-3.35.18-5.35.34-.1-1.44-.16-2.5-.32-5-.63-9.94c-.44-6.61-.78-13.23-1.29-19.76s-1-13-1.46-19.53c1.65-.13,4.76,8.33,4.94-.39,0-8.71.07-15.23.33-20.15a57.1,57.1,0,0,1,1.29-10.46c1.15-4.47,2.8-4.63,4.44-4.79s2.37,26,3.23,17.2c.63,6.5,1.24,14.11,1.88,21.44s1.33,14.38,1.95,19.81c1.09,10.86,2,15.18,2,2,.55-4.41-.3-15.29-1-26.18-.17-2.73-.33-5.45-.49-8.07s-.33-5.14-.42-7.46a55.38,55.38,0,0,1,.23-10.7c1.68-8.95,5.73,8.26,7.41-.68-.4-4.37-1-10.93-1.61-17.48s-1.45-13.09-1.94-17.46c.68-8.91,5.91,8.2,4.93-.55q-.24-5-.63-10.3c-.14-1.78-.28-3.59-.42-5.42s-.41-3.69-.62-5.57c-.86-7.54-1.89-15.47-3-23.67q-.37-2.82-.77-5.67c-.17-1.37-.24-3.46-.55-6.27l-.17-1.38-.11-1.28c-.09-1.09-.17-2.19-.26-3.29-.1-1.25-.29-2.76-.48-4s-.42-2.53-.65-3.71c-.43-2.14-.88-4.28-1.32-6.43q-.29-1.44-.51-2.73l-.19-1.25,0-.32,0-.39c-.05-.67-.07-1.88-.22-3.6a28.11,28.11,0,0,0-.43-3c-.11-.56-.25-1.17-.43-1.8l-.25-.86-.15-.45c-.77-2.34-1.32-4-1.5-4.91.81-.17,1.17-2.48,1.88-2.63.35-.08.79.38,1.42,1.92a6.53,6.53,0,0,1,.85,1.55c.22.48.49,1.12.84,2l.28.71.15.4c.05.15.08.2.21.62a28.4,28.4,0,0,1,1,3.91,41.34,41.34,0,0,1,.41,4.23c.05,1,.09,1.64.11,1.89l.17,1.13c.09.58.21,1.22.34,1.87.5,2.67,1.29,5.95,2,9.95.17,1,.32,2,.46,3.14s.24,2.25.32,3.2c.15,1.89.24,3.29.36,4.21l.16,1.38.15,1.59.21,2.56c.06.72.11,1.29.16,1.72l.26,1.84q1.39,9.79,2.78,19.6c.9,6.54,1.92,13.08,2.62,19.64l2.31,19.67c.37,3.28.81,6.56,1.12,9.84l1,9.85q.94,9.85,1.91,19.71c.61,6.58,1.09,13.15,1.64,19.72s1.11,13.16,1.56,19.73.91,13.14,1.36,19.72l.68,9.86.08.92a28,28,0,0,1,.06,3.63,23,23,0,0,1-1.29,6.55c-.21.6-.44,1.18-.7,1.74l-.36.76-.19.38c-.26.51-.54,1-.85,1.55a26.93,26.93,0,0,1-5.14,6.3,26.78,26.78,0,0,1-11,6c-.64.17-1.28.32-1.93.44s-1.13.19-1.71.27a30.82,30.82,0,0,1-6.31.17,37.8,37.8,0,0,1-9.71-2.09c-1.35-.47-2.58-1-3.72-1.48s-2.14-1-3.14-1.5c-2-1-3.86-2.09-5.59-3.15s-3.34-2.11-4.84-3.12l-2.18-1.49L268,620.17c-3.06-2.19-6-4.46-8.82-6.78s-5.36-4.68-8-7-5.23-4.72-7.72-7l-1.82-1.73-.38-.36-.11-.09-1.06-1c-.53-.49-1.22-1.14-2.09-2.09l-.67-.78-.37-.44-.5-.65a22.59,22.59,0,0,1-2.05-3.3c-.49-1-.82-1.77-1-2.31l-.36-1a12.82,12.82,0,0,0,1.09,2.21,15.75,15.75,0,0,0,1.12,1.62c.32.39.54.64.69.8.3.31.29.29,0,0l-.7-.65-.8-.79-1-1q-1.89-1.9-3.74-3.86c-4.92-5.2-9.57-10.59-14-16.07-8.82-11-16.65-22.38-24-33.36l-10.93-16.25-5.46-8.11-5.5-7.7L167,498.7c-.42-.61-1-1.37-1.47-2l-1.38-1.87a41.54,41.54,0,0,0-4.29-5.11c-.15-.15-.28-.26-.42-.39l-.47-.41c-.31-.27-.6-.49-.88-.7a9.57,9.57,0,0,0-1.39-.87,3.25,3.25,0,0,0-.71-.27c-.09,0,0,0,.09,0a.8.8,0,0,0,.22,0h.06l-.2,0-.63.08c-.22,0-.25,0,0,0l.28-.06.44-.1.66-.19.48-.16.57-.21.66-.28c.29-.13.59-.27.88-.42s.72-.38,1.09-.61.73-.45,1.5-1a20.27,20.27,0,0,0,2.8-2.55,19.93,19.93,0,0,0,5-15.2c-.12-1-.07-.57,0,0l.09.85.06.61.11,1.23.93,9.83L173,498.58l3.67,39.33,1.83,19.66.91,9.83.45,4.92.61,4.21,1.22,8.65.08.55c0,.2,0,.32.1.66.11.6.21,1.19.29,1.76.18,1.14.32,2.23.44,3.26.23,2.08.38,3.93.51,5.56s.26,3,.4,4.23l.57,4.9c.39,3.37.78,6.94,1.05,10.73a110.27,110.27,0,0,1,.26,12c0,1-.1,2.13-.16,3.2s-.18,2.25-.32,3.39c-.26,2.27-.64,4.57-1.14,6.88a63.39,63.39,0,0,1-4.69,13.87A59.45,59.45,0,0,1,170.84,669l-22,26.13L135.59,663.6a47.57,47.57,0,0,1-2.18-6.25,34.31,34.31,0,0,1-1.26-9.43,31.14,31.14,0,0,1,.69-6.15,26.49,26.49,0,0,1,3.31-8.23,24.64,24.64,0,0,1,3.76-4.72,24.07,24.07,0,0,1,5.79-4.2,23.65,23.65,0,0,1,7.36-2.4A23.78,23.78,0,0,1,174.49,630a24.2,24.2,0,0,1,3.77,5.72,24.72,24.72,0,0,1,1.9,5.79,26.76,26.76,0,0,1,.2,8.94,30.39,30.39,0,0,1-1.56,6.08,34.8,34.8,0,0,1-4.43,8.25,47.72,47.72,0,0,1-4.31,5.17l-22,23.22-12.43-29.38c-.32-.75-.6-1.52-.85-2.31-.12-.39-.24-.78-.34-1.18,0-.16-.12-.49-.18-.75l-.16-.83c-.1-.55-.18-1.11-.24-1.67l-.07-.84,0-.41v-.54a23.54,23.54,0,0,1,.34-4.44,22,22,0,0,1,3.3-8.21c.31-.46.63-.91,1-1.34s.78-.95,1.19-1.4a22.63,22.63,0,0,1,2.82-2.55,21.47,21.47,0,0,1,3.79-2.3l1-.46c.37-.15.63-.25,1.12-.42A21.41,21.41,0,0,1,154,633l.71,0h1c.65,0,1.31,0,2,.12a21.13,21.13,0,0,1,3.89.79q.48.14.93.3c.3.1.59.21,1,.37a23.56,23.56,0,0,1,2.21,1.07,21.3,21.3,0,0,1,7.09,6.36,21.85,21.85,0,0,1,2.18,3.93,21.39,21.39,0,0,1,1.18,3.66,22.14,22.14,0,0,1,.5,5.51c0,.45,0,.91-.09,1.35l-.09.73c-.07.48-.15,1-.25,1.45a22.63,22.63,0,0,1-.79,2.85l-.19.54-.15.37-.32.74c-.22.49-.45,1-.71,1.45l-.38.71-.29.48-.52.81c-.35.52-.75,1.08-1.1,1.52-.52.65-1.06,1.27-1.63,1.88L148,693.47,135.6,663.71Q93.8,563.45,53,463.74l1.1,2.27-1.67-3.26-1.1-2.14-.37-1.1c-.45-1.31-1.06-2.85-1.84-4.76s-1.71-4.19-2.6-6.77l1,2.35c-.85-1.72-1.49-3.2-2-4.33s-.83-1.93-1.08-2.44l-.38-.79-.32-.77c-2.85-6.9-5.67-13.74-8.5-20.58-12.66-32.15.44-9.6,12.85,13.45-4.13-7.67-1.84-8.6-6-16.29,1.5-.62,6.52,5.31,13.88,18.52l.25.54c1.07,1.52,2.15,3.71,3.74,6.43l-.31-.73c1.66,3.8,3.7,7.47,5.25,11.24l.27.66.13.22,1.83,3.18-.29-.6,2.66,5.89L67,458l.28.58-1.69-3.25-.27-.51-.11-.32c-1.24-3.54-3-7.27-4.51-11.5l.25.61c-.63-1.27-1.17-2.5-1.67-3.64-.7-2.14-.86-3.05-.72-3.47l-.15-.34c.07-.29.25-.34.52-.21l.13.3c1,.07,3.1,2.43,4,2.06.51,1.15,1,2.32,1.59,3.44l-.06-.12c.91,2.55,1.93,4.89,2.79,6.84S69,452,69.48,453l.06.11c.51.74.87,1.1,1,1l2.87-1.62-.64-1.23.22.48c-1.44-4.08-3.22-7.81-4.51-11.5l-.07-.18-.08-.17c-1-2-1.9-4.35-3.11-6.75l.11.24L60,420.64c2,4.82,4.07,9.64,5.52,12.64l-.11-.25c1.2,2.18,1.89,3.38,2.21,3.25l3-1.33c.52,1.06,1,2.05,1.52,3l.13.23.23.61c1.19,3.14,3,6.83,4.6,11.48l-.53-1.18c.54,1.07,1.09,2.16,1.66,3.27l.32.65.07.17c5.28,13.15,10.74,27.72,15.74,38.28l2.29-.95c-4-11-10.12-25.26-15.74-38.27l-.23-.54-.3-.56-1.73-3.23.71,1.56c-.87-2.37-1.79-4.51-2.59-6.39s-1.5-3.54-2-5.07l-.22-.63-.25-.49c-.46-.89-.89-1.86-1.36-2.94a16.16,16.16,0,0,0,1.76,2.74l.5,1.17a8.48,8.48,0,0,0,2.49,3.19,1.75,1.75,0,0,0,1.77-.08c1,2.12,2.07,4.61,3.08,7.4l-1-2.09,1.72,3.24.46.88L84,451c8.7,20.77,15.93,42.15,26.55,62.11l-10-24.16C111,503.46,124.74,545,135.56,568.86Z" transform="translate(-30.07 -286.41)"/><path d="M315.71,288.36A222.31,222.31,0,0,1,346,286.43c5.2-.1,10.44.31,15.74.57,2.64.18,5.29.51,8,.78l4,.43c1.34.14,2.66.39,4,.58l8,1.28c2.67.53,5.33,1.11,8,1.68l4,.88c1.42.34,2.84.71,4.25,1.1,2.83.79,5.66,1.67,8.48,2.67a107.52,107.52,0,0,1,16.9,7.6,72.43,72.43,0,0,1,16.52,12.52,52.16,52.16,0,0,1,7.31,9.45,45.7,45.7,0,0,1,5.08,12,42.65,42.65,0,0,1,1.2,6.61c.15,1.11.15,2.24.2,3.37a30.77,30.77,0,0,1,0,3.33,47.48,47.48,0,0,1-2.3,12.38,70.39,70.39,0,0,1-9.59,18.48c-1.77,2.55-3.57,4.87-5.34,7.07-.88,1.11-1.75,2.15-2.62,3.19l-2.54,3c-6.7,8-13.67,15.58-20.56,23-3.52,3.63-6.93,7.31-10.45,10.79-1.75,1.76-3.46,3.53-5.21,5.25l-5.22,5.12c-1.7,1.72-3.45,3.39-5.22,5.05l-5.31,5-5.46,4.89c-1.82,1.64-3.66,3.26-5.54,4.84l-5.64,4.77c-1.89,1.58-3.83,3.1-5.76,4.66-3.83,3.14-7.8,6.1-11.76,9.12a475.67,475.67,0,0,1-50.44,32.82l-20.92-43.27a169.73,169.73,0,0,1,22.54-8.12,175.12,175.12,0,0,1,23.32-4.61,184.77,184.77,0,0,1,23.45-1.32A199.16,199.16,0,0,1,370.21,455a214.51,214.51,0,0,1,22.47,4.21c7.36,1.8,14.55,4,21.61,6.52s13.91,5.43,20.61,8.58,13.18,6.69,19.46,10.49c-.54.88-3,.93-4.48,1.42s-2,1.38,1.25,3.88c1.65,1.21,3.13,2.43,4.54,3.55l2,1.65,1.82,1.62c1.17,1.05,2.23,2,3.21,3s1.82,1.87,2.6,2.72a33.42,33.42,0,0,1,5.84,8c1.86,4,.44,5.64-.89,7.22-.34.41-1.58-.38-3.26-1.54s-3.73-2.86-5.66-4.28-3.67-2.71-4.62-3.24-1.1-.31.14,1.23A166.64,166.64,0,0,0,440.94,500l-2.09-1.18-2.1-1.08-4.07-2.07c-2.68-1.23-5.15-2.39-7.36-3.28s-4.11-1.59-5.55-2.08a10.8,10.8,0,0,0-2.85-.63c-.4,0-.21.35.71,1s2.54,1.61,5,3a61.6,61.6,0,0,0,7.8,4.84l5.55,3.19c1.95,1.12,3.93,2.36,5.93,3.57s3.91,2.56,5.77,3.81,3.55,2.62,5.1,3.85a46.52,46.52,0,0,1,4,3.59,13.89,13.89,0,0,1,2.4,3c1.93,3.53-.52,3.58-2.88,3.69a5.8,5.8,0,0,0-3,.61c-.66.49-.75,1.35.13,3.07,2.76,2.18,6.86,5.5,10.69,9.11s7.48,7.34,9.84,9.91c.79,1.61.6,2.42-.06,2.7a6.15,6.15,0,0,1-2.85-.06c-2.12-.37-4-.87-1.73,1.58a180.46,180.46,0,0,0,11.53,14.46,83.3,83.3,0,0,0,8.64,8.29A63.61,63.61,0,0,0,501,580.5c1.07.58,2.23,1,3.36,1.57l.87.38,1,.39c.67.27,1.35.5,2,.71a48.38,48.38,0,0,0,8.08,1.88,51.92,51.92,0,0,0,16.26-.26,43.75,43.75,0,0,0,16.89-6.6,34.69,34.69,0,0,0,8.12-7.52A31.75,31.75,0,0,0,563.12,560c1,.27,2.52-1.26,3.42-1,.44.11.74.67.75,2.11a28.42,28.42,0,0,1-2.13,7.05,34.41,34.41,0,0,1-6.35,9.55,43.3,43.3,0,0,1-15.46,10A53.91,53.91,0,0,1,528.41,591a56.83,56.83,0,0,1-14.7-.68,51.41,51.41,0,0,1-7.51-1.91c-.63-.2-1.26-.43-1.9-.67s-1.31-.5-1.79-.72c-1.05-.46-2.1-.93-3.14-1.41a70.06,70.06,0,0,1-11.25-6.9,90.24,90.24,0,0,1-9-7.75c-5.35-5.21-9.48-10.18-13.2-14.3-.93-1.06-1.79-1.94-2.67-2.88s-1.72-1.89-2.66-2.77c-1.84-1.81-3.65-3.63-5.6-5.35s-3.91-3.41-5.88-5.1c-1-.83-2.05-1.62-3.07-2.43s-2-1.62-3.11-2.38l-3.17-2.32c-1.07-.75-2.17-1.47-3.25-2.22-2.14-1.51-4.42-2.84-6.63-4.27-4.53-2.67-9.11-5.3-13.88-7.58A175.63,175.63,0,0,0,386.49,508c-5.07-1.37-10.16-2.65-15.3-3.52-2.56-.52-5.13-.84-7.7-1.22-1.29-.2-2.57-.29-3.86-.44s-2.57-.3-3.86-.36c-20.58-1.66-41,1.31-58.93,9.09l-20.91-43.23A459.52,459.52,0,0,0,372,398.9c7.22-6.74,14.09-13.84,20.8-21.06l5-5.47,4.84-5.58a115.17,115.17,0,0,0,8.13-10.16,24.65,24.65,0,0,0,3.49-6.61,4.79,4.79,0,0,0,.16-.89c0-.06,0-.12,0-.21a3.38,3.38,0,0,0-.47-.89,12.65,12.65,0,0,0-1.76-2,34.78,34.78,0,0,0-7.51-5.08,70.33,70.33,0,0,0-10.71-4.46c-1.93-.63-3.92-1.21-5.93-1.73l-.75-.19-.85-.19-1.7-.37-3.39-.75-3.38-.76-3.43-.58c-2.3-.37-4.57-.82-6.87-1.14L360.7,330l-1.73-.21c-.58-.06-1.16-.09-1.74-.14l-3.49-.26c-4.64-.46-9.31-.45-14-.63-2.34,0-4.67.08-7,.1-1.17,0-2.33,0-3.5.07l-3.5.22A207.36,207.36,0,0,0,298,332.49l-6.87,1.34-6.78,1.65c-1.13.29-2.28.52-3.39.86l-3.34,1-3.35,1c-1.11.32-2.23.65-3.31,1.05l-6.58,2.27c-2.19.76-4.29,1.7-6.45,2.54l-3.22,1.28-3.14,1.44c-2.08,1-4.21,1.88-6.27,2.91l-6.1,3.18-1.52.8-1.26.71c-.83.49-1.66,1-2.47,1.51a63.72,63.72,0,0,0-9,6.93,46.23,46.23,0,0,0-3.61,3.72l-.77.92-.71.91c-.11.14-.2.29-.31.44a4.47,4.47,0,0,0-.35.41c-.22.28-.39.55-.6.82a20.86,20.86,0,0,0-1.68,2.77c-.36.73-.53,1.21-.65,1.43a1,1,0,0,1-.33.29s-.06,0-.06.06h0l-.11,0h0l0,0-.09.06c-.16.07-.2.16-.32.25a1.43,1.43,0,0,0-.26.31,1.73,1.73,0,0,0-.21.34,6.16,6.16,0,0,1-.32.63c.26.86.18,1.22-.18,1.15a2,2,0,0,1-.75-.4l-.12-.09-.05,0-.1-.05-.22-.14a3.56,3.56,0,0,1-.85-.91l-.06-.14,0-.07,0,0v0h0s-.1,0,.09,0h0c-.15-.08-.19-.19-.3-.29a1.68,1.68,0,0,1-.27-.37l-.14-.21-.1-.24a6.22,6.22,0,0,1-.4-3,16.13,16.13,0,0,1,1.15-4.7,9.15,9.15,0,0,1-2.42,3.86,3.76,3.76,0,0,0-1.26,3.42,1.87,1.87,0,0,1-1-.38,3.09,3.09,0,0,1-1-1.2,9.58,9.58,0,0,1-.52-5.94,28.8,28.8,0,0,1,4.76-10.71,54.39,54.39,0,0,1,12.54-12.76,79.53,79.53,0,0,0-8.12,6.45,61.79,61.79,0,0,0-7,7.42c-2.38,2.36-2.9,2.05-3.06.88-.07-.57,0-1.35,0-2.06a2.16,2.16,0,0,0-.43-1.61c4.47-5.77,10.24-10.35,9.64-11.06l-2.32-2.78A76.68,76.68,0,0,0,201,351.35a51.42,51.42,0,0,0-4.79,7.2,39.56,39.56,0,0,0-2.92,6.7,48.59,48.59,0,0,1,4.74-10c1.52-2.56,2.62-4.21,2.26-4.49l-2.83-2.23c4.84-7,12.65-13.69,21.24-18.92,1.08-.65,2.16-1.29,3.26-1.91s2.13-1.12,3.19-1.69l6.19-3.27c2-1.07,4.05-2,6-3s3.7-1.95,5.42-2.82l-1.12-2.51c-1.83.66-3.71,1.54-5.7,2.41s-4,1.8-6.1,2.87l-6.25,3.41c-1.06.6-2.09,1.14-3.19,1.81s-2.22,1.37-3.3,2.08a93,93,0,0,0-21.71,19.83c2.37-3.71,3.57-5.55,3.91-6.72a2,2,0,0,0-.77-2.29,79.83,79.83,0,0,1,14.93-12.53c1.34-.89,2.71-1.73,4.11-2.55.69-.39,1.42-.84,2.07-1.18l2-1,7.92-4.11c10.71-5.2,21.59-9.7,32.4-14.82-1.9.56-3.74,1.3-5.61,2l-5.57,2.06c-.94.33-1.86.7-2.77,1.1L245.15,308l-5.47,2.33C246,305,259,299.41,273.55,295.71c7.25-1.9,14.84-3.38,22.09-4.52l5.36-.8c1.76-.25,3.48-.57,5.17-.74C309.55,289.25,312.76,288.83,315.71,288.36Z" transform="translate(-30.07 -286.41)"/></svg>